<mxfile host="app.diagrams.net" modified="2020-03-23T05:04:48.296Z" agent="Mozilla/5.0 (X11; Linux x86_64) AppleWebKit/537.36 (KHTML, like Gecko) Chrome/74.0.3729.169 Safari/537.36" etag="l2xT3YrcSjL4v7Ez9DS5" version="12.8.6" type="github">
  <diagram id="O9e0cF5DQj5KzVvoSxu0" name="Page-1">
    <mxGraphModel dx="1019" dy="453" grid="1" gridSize="10" guides="1" tooltips="1" connect="1" arrows="1" fold="1" page="1" pageScale="1" pageWidth="850" pageHeight="1100" math="0" shadow="0">
      <root>
        <mxCell id="0" />
        <mxCell id="1" parent="0" />
        <mxCell id="FEGUE5NpYRsxdnVDJNG3-1" value="" style="rounded=0;whiteSpace=wrap;html=1;" vertex="1" parent="1">
          <mxGeometry x="80" y="50" width="640" height="540" as="geometry" />
        </mxCell>
        <mxCell id="FEGUE5NpYRsxdnVDJNG3-2" value="" style="verticalLabelPosition=bottom;shadow=0;dashed=0;align=center;html=1;verticalAlign=top;strokeWidth=1;shape=mxgraph.mockup.graphics.simpleIcon;strokeColor=#000000;rounded=0;labelBackgroundColor=none;fontFamily=Verdana;fontSize=14;fontColor=#000000;comic=1;" vertex="1" parent="1">
          <mxGeometry x="100" y="60" width="64.61" height="60" as="geometry" />
        </mxCell>
        <mxCell id="FEGUE5NpYRsxdnVDJNG3-3" value="NAMA OUTLET" style="text;html=1;strokeColor=none;fillColor=none;align=left;verticalAlign=middle;whiteSpace=wrap;rounded=0;" vertex="1" parent="1">
          <mxGeometry x="180" y="60" width="500" height="20" as="geometry" />
        </mxCell>
        <mxCell id="FEGUE5NpYRsxdnVDJNG3-4" value="INFORMASI OUTLET (ALAMAT)" style="text;html=1;strokeColor=none;fillColor=none;align=left;verticalAlign=middle;whiteSpace=wrap;rounded=0;" vertex="1" parent="1">
          <mxGeometry x="180" y="90" width="500" height="20" as="geometry" />
        </mxCell>
        <mxCell id="FEGUE5NpYRsxdnVDJNG3-5" value="" style="endArrow=none;html=1;exitX=-0.002;exitY=0.141;exitDx=0;exitDy=0;exitPerimeter=0;entryX=1.003;entryY=0.139;entryDx=0;entryDy=0;entryPerimeter=0;" edge="1" parent="1" source="FEGUE5NpYRsxdnVDJNG3-1" target="FEGUE5NpYRsxdnVDJNG3-1">
          <mxGeometry width="50" height="50" relative="1" as="geometry">
            <mxPoint x="160" y="220" as="sourcePoint" />
            <mxPoint x="210" y="170" as="targetPoint" />
          </mxGeometry>
        </mxCell>
        <mxCell id="FEGUE5NpYRsxdnVDJNG3-6" value="Tanggal" style="text;html=1;strokeColor=none;fillColor=none;align=left;verticalAlign=middle;whiteSpace=wrap;rounded=0;" vertex="1" parent="1">
          <mxGeometry x="425" y="160" width="40" height="20" as="geometry" />
        </mxCell>
        <mxCell id="FEGUE5NpYRsxdnVDJNG3-7" value="" style="group" vertex="1" connectable="0" parent="1">
          <mxGeometry x="492" y="160" width="218" height="20" as="geometry" />
        </mxCell>
        <mxCell id="FEGUE5NpYRsxdnVDJNG3-8" value="yyyy-mm-dd" style="text;html=1;strokeColor=none;fillColor=none;align=left;verticalAlign=middle;whiteSpace=wrap;rounded=0;" vertex="1" parent="FEGUE5NpYRsxdnVDJNG3-7">
          <mxGeometry x="118" width="100" height="20" as="geometry" />
        </mxCell>
        <mxCell id="FEGUE5NpYRsxdnVDJNG3-9" value="yyyy-mm-dd" style="text;html=1;strokeColor=none;fillColor=none;align=left;verticalAlign=middle;whiteSpace=wrap;rounded=0;" vertex="1" parent="FEGUE5NpYRsxdnVDJNG3-7">
          <mxGeometry width="100" height="20" as="geometry" />
        </mxCell>
        <mxCell id="FEGUE5NpYRsxdnVDJNG3-10" value="/" style="text;html=1;strokeColor=none;fillColor=none;align=center;verticalAlign=middle;whiteSpace=wrap;rounded=0;" vertex="1" parent="FEGUE5NpYRsxdnVDJNG3-7">
          <mxGeometry x="100" width="15" height="20" as="geometry" />
        </mxCell>
        <mxCell id="FEGUE5NpYRsxdnVDJNG3-11" value="Tanggal closing" style="text;html=1;strokeColor=none;fillColor=none;align=left;verticalAlign=middle;whiteSpace=wrap;rounded=0;" vertex="1" parent="1">
          <mxGeometry x="100" y="190" width="110" height="20" as="geometry" />
        </mxCell>
        <mxCell id="FEGUE5NpYRsxdnVDJNG3-12" value="Uang setoran" style="text;html=1;strokeColor=none;fillColor=none;align=left;verticalAlign=middle;whiteSpace=wrap;rounded=0;" vertex="1" parent="1">
          <mxGeometry x="425" y="190" width="80" height="20" as="geometry" />
        </mxCell>
        <mxCell id="FEGUE5NpYRsxdnVDJNG3-13" value="Total uang setoran" style="text;html=1;strokeColor=none;fillColor=none;align=left;verticalAlign=middle;whiteSpace=wrap;rounded=0;" vertex="1" parent="1">
          <mxGeometry x="100" y="160" width="130" height="20" as="geometry" />
        </mxCell>
      </root>
    </mxGraphModel>
  </diagram>
</mxfile>
